<mxfile host="app.diagrams.net" modified="2023-05-08T20:18:07.703Z" agent="5.0 (Windows NT 10.0; Win64; x64) AppleWebKit/537.36 (KHTML, like Gecko) Chrome/113.0.0.0 Safari/537.36 Edg/113.0.1774.35" etag="mJe0wKI5GnvLd9nz5zal" version="20.8.4" type="github">
  <diagram id="4dFPtip_Eg7D9AuypCAB" name="第 1 页">
    <mxGraphModel dx="1508" dy="837" grid="1" gridSize="10" guides="1" tooltips="1" connect="1" arrows="1" fold="1" page="1" pageScale="1" pageWidth="827" pageHeight="1169" math="0" shadow="0">
      <root>
        <mxCell id="0" />
        <mxCell id="1" parent="0" />
        <mxCell id="k6LYRhOf6JFqd42rEc7l-1" value="" style="shape=waypoint;sketch=0;size=6;pointerEvents=1;points=[];fillColor=none;resizable=0;rotatable=0;perimeter=centerPerimeter;snapToPoint=1;" parent="1" vertex="1">
          <mxGeometry x="220" y="80" width="20" height="20" as="geometry" />
        </mxCell>
        <mxCell id="k6LYRhOf6JFqd42rEc7l-2" value="" style="shape=waypoint;sketch=0;size=6;pointerEvents=1;points=[];fillColor=none;resizable=0;rotatable=0;perimeter=centerPerimeter;snapToPoint=1;" parent="1" vertex="1">
          <mxGeometry x="530" y="80" width="20" height="20" as="geometry" />
        </mxCell>
        <mxCell id="k6LYRhOf6JFqd42rEc7l-3" value="" style="shape=waypoint;sketch=0;size=6;pointerEvents=1;points=[];fillColor=none;resizable=0;rotatable=0;perimeter=centerPerimeter;snapToPoint=1;" parent="1" vertex="1">
          <mxGeometry x="660" y="300" width="20" height="20" as="geometry" />
        </mxCell>
        <mxCell id="k6LYRhOf6JFqd42rEc7l-5" value="" style="shape=waypoint;sketch=0;size=6;pointerEvents=1;points=[];fillColor=none;resizable=0;rotatable=0;perimeter=centerPerimeter;snapToPoint=1;" parent="1" vertex="1">
          <mxGeometry x="230" y="280" width="20" height="20" as="geometry" />
        </mxCell>
        <mxCell id="k6LYRhOf6JFqd42rEc7l-6" value="" style="shape=waypoint;sketch=0;size=6;pointerEvents=1;points=[];fillColor=none;resizable=0;rotatable=0;perimeter=centerPerimeter;snapToPoint=1;" parent="1" vertex="1">
          <mxGeometry x="450" y="230" width="20" height="20" as="geometry" />
        </mxCell>
        <mxCell id="k6LYRhOf6JFqd42rEc7l-8" value="" style="shape=waypoint;sketch=0;size=6;pointerEvents=1;points=[];fillColor=none;resizable=0;rotatable=0;perimeter=centerPerimeter;snapToPoint=1;" parent="1" vertex="1">
          <mxGeometry x="200" y="520" width="20" height="20" as="geometry" />
        </mxCell>
        <mxCell id="k6LYRhOf6JFqd42rEc7l-9" value="" style="shape=waypoint;sketch=0;size=6;pointerEvents=1;points=[];fillColor=none;resizable=0;rotatable=0;perimeter=centerPerimeter;snapToPoint=1;" parent="1" vertex="1">
          <mxGeometry x="520" y="520" width="20" height="20" as="geometry" />
        </mxCell>
        <mxCell id="k6LYRhOf6JFqd42rEc7l-10" value="" style="shape=waypoint;sketch=0;size=6;pointerEvents=1;points=[];fillColor=none;resizable=0;rotatable=0;perimeter=centerPerimeter;snapToPoint=1;" parent="1" vertex="1">
          <mxGeometry x="70" y="290" width="20" height="20" as="geometry" />
        </mxCell>
        <mxCell id="k6LYRhOf6JFqd42rEc7l-11" value="" style="shape=waypoint;sketch=0;size=6;pointerEvents=1;points=[];fillColor=none;resizable=0;rotatable=0;perimeter=centerPerimeter;snapToPoint=1;" parent="1" vertex="1">
          <mxGeometry x="370" y="380" width="20" height="20" as="geometry" />
        </mxCell>
        <mxCell id="k6LYRhOf6JFqd42rEc7l-12" value="" style="shape=waypoint;sketch=0;size=6;pointerEvents=1;points=[];fillColor=none;resizable=0;rotatable=0;perimeter=centerPerimeter;snapToPoint=1;" parent="1" vertex="1">
          <mxGeometry x="350" y="650" width="20" height="20" as="geometry" />
        </mxCell>
        <mxCell id="k6LYRhOf6JFqd42rEc7l-13" style="edgeStyle=orthogonalEdgeStyle;rounded=0;orthogonalLoop=1;jettySize=auto;html=1;entryX=0.62;entryY=0.67;entryDx=0;entryDy=0;entryPerimeter=0;" parent="1" source="k6LYRhOf6JFqd42rEc7l-10" target="k6LYRhOf6JFqd42rEc7l-10" edge="1">
          <mxGeometry relative="1" as="geometry" />
        </mxCell>
        <mxCell id="k6LYRhOf6JFqd42rEc7l-14" style="edgeStyle=orthogonalEdgeStyle;rounded=0;orthogonalLoop=1;jettySize=auto;html=1;entryX=0.62;entryY=0.63;entryDx=0;entryDy=0;entryPerimeter=0;" parent="1" source="k6LYRhOf6JFqd42rEc7l-10" target="k6LYRhOf6JFqd42rEc7l-10" edge="1">
          <mxGeometry relative="1" as="geometry" />
        </mxCell>
        <mxCell id="k6LYRhOf6JFqd42rEc7l-15" value="" style="endArrow=none;html=1;rounded=0;exitX=0.4;exitY=0.57;exitDx=0;exitDy=0;exitPerimeter=0;" parent="1" source="k6LYRhOf6JFqd42rEc7l-8" edge="1">
          <mxGeometry width="50" height="50" relative="1" as="geometry">
            <mxPoint x="210" y="510" as="sourcePoint" />
            <mxPoint x="80" y="300" as="targetPoint" />
          </mxGeometry>
        </mxCell>
        <mxCell id="k6LYRhOf6JFqd42rEc7l-16" style="edgeStyle=orthogonalEdgeStyle;rounded=0;orthogonalLoop=1;jettySize=auto;html=1;entryX=0.52;entryY=0.85;entryDx=0;entryDy=0;entryPerimeter=0;" parent="1" source="k6LYRhOf6JFqd42rEc7l-8" target="k6LYRhOf6JFqd42rEc7l-8" edge="1">
          <mxGeometry relative="1" as="geometry" />
        </mxCell>
        <mxCell id="k6LYRhOf6JFqd42rEc7l-17" value="" style="endArrow=none;html=1;rounded=0;entryX=0.48;entryY=0.83;entryDx=0;entryDy=0;entryPerimeter=0;" parent="1" source="k6LYRhOf6JFqd42rEc7l-8" target="k6LYRhOf6JFqd42rEc7l-9" edge="1">
          <mxGeometry width="50" height="50" relative="1" as="geometry">
            <mxPoint x="610" y="460" as="sourcePoint" />
            <mxPoint x="660" y="410" as="targetPoint" />
          </mxGeometry>
        </mxCell>
        <mxCell id="k6LYRhOf6JFqd42rEc7l-18" value="" style="endArrow=none;html=1;rounded=0;exitX=0.52;exitY=0.73;exitDx=0;exitDy=0;exitPerimeter=0;entryX=0.24;entryY=1.01;entryDx=0;entryDy=0;entryPerimeter=0;" parent="1" source="k6LYRhOf6JFqd42rEc7l-9" target="k6LYRhOf6JFqd42rEc7l-3" edge="1">
          <mxGeometry width="50" height="50" relative="1" as="geometry">
            <mxPoint x="610" y="460" as="sourcePoint" />
            <mxPoint x="660" y="410" as="targetPoint" />
          </mxGeometry>
        </mxCell>
        <mxCell id="k6LYRhOf6JFqd42rEc7l-19" value="" style="endArrow=none;html=1;rounded=0;exitX=0.7;exitY=0.35;exitDx=0;exitDy=0;exitPerimeter=0;" parent="1" source="k6LYRhOf6JFqd42rEc7l-10" target="k6LYRhOf6JFqd42rEc7l-1" edge="1">
          <mxGeometry width="50" height="50" relative="1" as="geometry">
            <mxPoint x="610" y="460" as="sourcePoint" />
            <mxPoint x="660" y="410" as="targetPoint" />
          </mxGeometry>
        </mxCell>
        <mxCell id="k6LYRhOf6JFqd42rEc7l-20" value="" style="endArrow=none;html=1;rounded=0;exitX=0.52;exitY=0.89;exitDx=0;exitDy=0;exitPerimeter=0;" parent="1" source="k6LYRhOf6JFqd42rEc7l-1" target="k6LYRhOf6JFqd42rEc7l-2" edge="1">
          <mxGeometry width="50" height="50" relative="1" as="geometry">
            <mxPoint x="610" y="460" as="sourcePoint" />
            <mxPoint x="660" y="410" as="targetPoint" />
          </mxGeometry>
        </mxCell>
        <mxCell id="k6LYRhOf6JFqd42rEc7l-21" value="" style="endArrow=none;html=1;rounded=0;exitX=0.62;exitY=0.61;exitDx=0;exitDy=0;exitPerimeter=0;" parent="1" source="k6LYRhOf6JFqd42rEc7l-2" edge="1">
          <mxGeometry width="50" height="50" relative="1" as="geometry">
            <mxPoint x="610" y="460" as="sourcePoint" />
            <mxPoint x="670" y="310" as="targetPoint" />
          </mxGeometry>
        </mxCell>
        <mxCell id="k6LYRhOf6JFqd42rEc7l-22" value="" style="endArrow=none;html=1;rounded=0;exitX=0.78;exitY=0.49;exitDx=0;exitDy=0;exitPerimeter=0;entryX=0.46;entryY=1.03;entryDx=0;entryDy=0;entryPerimeter=0;" parent="1" source="k6LYRhOf6JFqd42rEc7l-5" target="k6LYRhOf6JFqd42rEc7l-6" edge="1">
          <mxGeometry width="50" height="50" relative="1" as="geometry">
            <mxPoint x="610" y="460" as="sourcePoint" />
            <mxPoint x="660" y="410" as="targetPoint" />
            <Array as="points">
              <mxPoint x="380" y="390" />
              <mxPoint x="670" y="310" />
            </Array>
          </mxGeometry>
        </mxCell>
        <mxCell id="k6LYRhOf6JFqd42rEc7l-23" value="" style="endArrow=none;html=1;rounded=0;exitX=0.64;exitY=1.05;exitDx=0;exitDy=0;exitPerimeter=0;" parent="1" source="k6LYRhOf6JFqd42rEc7l-1" target="k6LYRhOf6JFqd42rEc7l-6" edge="1">
          <mxGeometry width="50" height="50" relative="1" as="geometry">
            <mxPoint x="610" y="460" as="sourcePoint" />
            <mxPoint x="660" y="410" as="targetPoint" />
            <Array as="points">
              <mxPoint x="240" y="290" />
            </Array>
          </mxGeometry>
        </mxCell>
        <mxCell id="k6LYRhOf6JFqd42rEc7l-24" value="" style="endArrow=none;html=1;rounded=0;entryX=0.34;entryY=0.97;entryDx=0;entryDy=0;entryPerimeter=0;exitX=0.46;exitY=0.77;exitDx=0;exitDy=0;exitPerimeter=0;" parent="1" source="k6LYRhOf6JFqd42rEc7l-11" target="k6LYRhOf6JFqd42rEc7l-2" edge="1">
          <mxGeometry width="50" height="50" relative="1" as="geometry">
            <mxPoint x="610" y="460" as="sourcePoint" />
            <mxPoint x="660" y="410" as="targetPoint" />
            <Array as="points">
              <mxPoint x="460" y="240" />
            </Array>
          </mxGeometry>
        </mxCell>
        <mxCell id="k6LYRhOf6JFqd42rEc7l-25" value="" style="endArrow=none;html=1;rounded=0;" parent="1" source="k6LYRhOf6JFqd42rEc7l-11" target="k6LYRhOf6JFqd42rEc7l-8" edge="1">
          <mxGeometry width="50" height="50" relative="1" as="geometry">
            <mxPoint x="610" y="460" as="sourcePoint" />
            <mxPoint x="660" y="410" as="targetPoint" />
          </mxGeometry>
        </mxCell>
        <mxCell id="k6LYRhOf6JFqd42rEc7l-26" value="" style="endArrow=none;html=1;rounded=0;entryX=0.36;entryY=0.21;entryDx=0;entryDy=0;entryPerimeter=0;" parent="1" target="k6LYRhOf6JFqd42rEc7l-9" edge="1">
          <mxGeometry width="50" height="50" relative="1" as="geometry">
            <mxPoint x="380" y="390" as="sourcePoint" />
            <mxPoint x="660" y="410" as="targetPoint" />
          </mxGeometry>
        </mxCell>
        <mxCell id="k6LYRhOf6JFqd42rEc7l-27" value="" style="endArrow=none;html=1;rounded=0;exitX=0.34;exitY=0.55;exitDx=0;exitDy=0;exitPerimeter=0;entryX=0.38;entryY=0.53;entryDx=0;entryDy=0;entryPerimeter=0;" parent="1" source="k6LYRhOf6JFqd42rEc7l-10" target="k6LYRhOf6JFqd42rEc7l-5" edge="1">
          <mxGeometry width="50" height="50" relative="1" as="geometry">
            <mxPoint x="610" y="460" as="sourcePoint" />
            <mxPoint x="660" y="410" as="targetPoint" />
            <Array as="points">
              <mxPoint x="240" y="350" />
              <mxPoint x="380" y="390" />
              <mxPoint x="310" y="340" />
            </Array>
          </mxGeometry>
        </mxCell>
        <mxCell id="k6LYRhOf6JFqd42rEc7l-28" value="" style="endArrow=none;html=1;rounded=0;" parent="1" edge="1">
          <mxGeometry width="50" height="50" relative="1" as="geometry">
            <mxPoint x="460" y="240" as="sourcePoint" />
            <mxPoint x="230" y="90" as="targetPoint" />
          </mxGeometry>
        </mxCell>
        <mxCell id="k6LYRhOf6JFqd42rEc7l-29" value="" style="endArrow=none;html=1;rounded=0;exitX=0.38;exitY=0.31;exitDx=0;exitDy=0;exitPerimeter=0;entryX=0.46;entryY=0.69;entryDx=0;entryDy=0;entryPerimeter=0;" parent="1" source="k6LYRhOf6JFqd42rEc7l-10" target="k6LYRhOf6JFqd42rEc7l-5" edge="1">
          <mxGeometry width="50" height="50" relative="1" as="geometry">
            <mxPoint x="610" y="460" as="sourcePoint" />
            <mxPoint x="660" y="410" as="targetPoint" />
          </mxGeometry>
        </mxCell>
        <mxCell id="k6LYRhOf6JFqd42rEc7l-30" value="北城&lt;br&gt;1" style="text;html=1;align=center;verticalAlign=middle;resizable=0;points=[];autosize=1;strokeColor=none;fillColor=none;" parent="1" vertex="1">
          <mxGeometry x="205" y="40" width="50" height="40" as="geometry" />
        </mxCell>
        <mxCell id="k6LYRhOf6JFqd42rEc7l-31" value="东城&lt;br&gt;2" style="text;html=1;align=center;verticalAlign=middle;resizable=0;points=[];autosize=1;strokeColor=none;fillColor=none;" parent="1" vertex="1">
          <mxGeometry x="525" y="60" width="50" height="40" as="geometry" />
        </mxCell>
        <mxCell id="k6LYRhOf6JFqd42rEc7l-33" value="南城&lt;br&gt;3" style="text;html=1;align=center;verticalAlign=middle;resizable=0;points=[];autosize=1;strokeColor=none;fillColor=none;" parent="1" vertex="1">
          <mxGeometry x="665" y="290" width="50" height="40" as="geometry" />
        </mxCell>
        <mxCell id="k6LYRhOf6JFqd42rEc7l-35" value="" style="endArrow=none;html=1;rounded=0;exitX=0.84;exitY=0.97;exitDx=0;exitDy=0;exitPerimeter=0;entryX=0.44;entryY=0.77;entryDx=0;entryDy=0;entryPerimeter=0;" parent="1" source="k6LYRhOf6JFqd42rEc7l-8" target="k6LYRhOf6JFqd42rEc7l-9" edge="1">
          <mxGeometry width="50" height="50" relative="1" as="geometry">
            <mxPoint x="610" y="430" as="sourcePoint" />
            <mxPoint x="520" y="558.9473684210527" as="targetPoint" />
            <Array as="points">
              <mxPoint x="360" y="660" />
            </Array>
          </mxGeometry>
        </mxCell>
        <mxCell id="k6LYRhOf6JFqd42rEc7l-36" value="松山湖&lt;br&gt;4" style="text;html=1;align=center;verticalAlign=middle;resizable=0;points=[];autosize=1;strokeColor=none;fillColor=none;" parent="1" vertex="1">
          <mxGeometry x="520" y="530" width="60" height="40" as="geometry" />
        </mxCell>
        <mxCell id="k6LYRhOf6JFqd42rEc7l-37" value="大岭山&lt;br&gt;5" style="text;html=1;align=center;verticalAlign=middle;resizable=0;points=[];autosize=1;strokeColor=none;fillColor=none;" parent="1" vertex="1">
          <mxGeometry x="330" y="660" width="60" height="40" as="geometry" />
        </mxCell>
        <mxCell id="k6LYRhOf6JFqd42rEc7l-38" value="西城&lt;br&gt;6" style="text;html=1;align=center;verticalAlign=middle;resizable=0;points=[];autosize=1;strokeColor=none;fillColor=none;" parent="1" vertex="1">
          <mxGeometry x="175" y="530" width="50" height="40" as="geometry" />
        </mxCell>
        <mxCell id="k6LYRhOf6JFqd42rEc7l-39" value="长安&lt;br&gt;7" style="text;html=1;align=center;verticalAlign=middle;resizable=0;points=[];autosize=1;strokeColor=none;fillColor=none;" parent="1" vertex="1">
          <mxGeometry x="35" y="280" width="50" height="40" as="geometry" />
        </mxCell>
        <mxCell id="k6LYRhOf6JFqd42rEc7l-40" value="中心城&lt;br&gt;8" style="text;html=1;align=center;verticalAlign=middle;resizable=0;points=[];autosize=1;strokeColor=none;fillColor=none;" parent="1" vertex="1">
          <mxGeometry x="230" y="240" width="60" height="40" as="geometry" />
        </mxCell>
        <mxCell id="k6LYRhOf6JFqd42rEc7l-41" value="莞城&lt;br&gt;9" style="text;html=1;align=center;verticalAlign=middle;resizable=0;points=[];autosize=1;strokeColor=none;fillColor=none;" parent="1" vertex="1">
          <mxGeometry x="465" y="210" width="50" height="40" as="geometry" />
        </mxCell>
        <mxCell id="k6LYRhOf6JFqd42rEc7l-42" value="万江&lt;br&gt;10" style="text;html=1;align=center;verticalAlign=middle;resizable=0;points=[];autosize=1;strokeColor=none;fillColor=none;" parent="1" vertex="1">
          <mxGeometry x="355" y="390" width="50" height="40" as="geometry" />
        </mxCell>
        <mxCell id="k6LYRhOf6JFqd42rEc7l-44" value="20" style="text;html=1;align=center;verticalAlign=middle;resizable=0;points=[];autosize=1;strokeColor=none;fillColor=none;" parent="1" vertex="1">
          <mxGeometry x="350" y="55" width="40" height="30" as="geometry" />
        </mxCell>
        <mxCell id="k6LYRhOf6JFqd42rEc7l-45" value="15" style="text;html=1;align=center;verticalAlign=middle;resizable=0;points=[];autosize=1;strokeColor=none;fillColor=none;" parent="1" vertex="1">
          <mxGeometry x="100" y="155" width="40" height="30" as="geometry" />
        </mxCell>
        <mxCell id="k6LYRhOf6JFqd42rEc7l-46" value="50" style="text;html=1;align=center;verticalAlign=middle;resizable=0;points=[];autosize=1;strokeColor=none;fillColor=none;" parent="1" vertex="1">
          <mxGeometry x="640" y="180" width="40" height="30" as="geometry" />
        </mxCell>
        <mxCell id="k6LYRhOf6JFqd42rEc7l-48" value="35" style="text;html=1;align=center;verticalAlign=middle;resizable=0;points=[];autosize=1;strokeColor=none;fillColor=none;" parent="1" vertex="1">
          <mxGeometry x="510" y="315" width="40" height="30" as="geometry" />
        </mxCell>
        <mxCell id="k6LYRhOf6JFqd42rEc7l-49" value="13" style="text;html=1;align=center;verticalAlign=middle;resizable=0;points=[];autosize=1;strokeColor=none;fillColor=none;" parent="1" vertex="1">
          <mxGeometry x="550" y="235" width="40" height="30" as="geometry" />
        </mxCell>
        <mxCell id="k6LYRhOf6JFqd42rEc7l-50" value="43" style="text;html=1;align=center;verticalAlign=middle;resizable=0;points=[];autosize=1;strokeColor=none;fillColor=none;" parent="1" vertex="1">
          <mxGeometry x="450" y="155" width="40" height="30" as="geometry" />
        </mxCell>
        <mxCell id="k6LYRhOf6JFqd42rEc7l-51" value="26" style="text;html=1;align=center;verticalAlign=middle;resizable=0;points=[];autosize=1;strokeColor=none;fillColor=none;" parent="1" vertex="1">
          <mxGeometry x="320" y="235" width="40" height="30" as="geometry" />
        </mxCell>
        <mxCell id="k6LYRhOf6JFqd42rEc7l-52" value="33" style="text;html=1;align=center;verticalAlign=middle;resizable=0;points=[];autosize=1;strokeColor=none;fillColor=none;" parent="1" vertex="1">
          <mxGeometry x="170" y="265" width="40" height="30" as="geometry" />
        </mxCell>
        <mxCell id="k6LYRhOf6JFqd42rEc7l-54" value="80" style="text;html=1;align=center;verticalAlign=middle;resizable=0;points=[];autosize=1;strokeColor=none;fillColor=none;" parent="1" vertex="1">
          <mxGeometry x="100" y="415" width="40" height="30" as="geometry" />
        </mxCell>
        <mxCell id="k6LYRhOf6JFqd42rEc7l-55" value="35" style="text;html=1;align=center;verticalAlign=middle;resizable=0;points=[];autosize=1;strokeColor=none;fillColor=none;" parent="1" vertex="1">
          <mxGeometry x="260" y="435" width="40" height="30" as="geometry" />
        </mxCell>
        <mxCell id="k6LYRhOf6JFqd42rEc7l-56" value="66" style="text;html=1;align=center;verticalAlign=middle;resizable=0;points=[];autosize=1;strokeColor=none;fillColor=none;" parent="1" vertex="1">
          <mxGeometry x="350" y="505" width="40" height="30" as="geometry" />
        </mxCell>
        <mxCell id="k6LYRhOf6JFqd42rEc7l-58" value="18" style="text;html=1;align=center;verticalAlign=middle;resizable=0;points=[];autosize=1;strokeColor=none;fillColor=none;" parent="1" vertex="1">
          <mxGeometry x="355" y="135" width="40" height="30" as="geometry" />
        </mxCell>
        <mxCell id="k6LYRhOf6JFqd42rEc7l-59" value="12" style="text;html=1;align=center;verticalAlign=middle;resizable=0;points=[];autosize=1;strokeColor=none;fillColor=none;" parent="1" vertex="1">
          <mxGeometry x="230" y="165" width="40" height="30" as="geometry" />
        </mxCell>
        <mxCell id="k6LYRhOf6JFqd42rEc7l-60" value="100" style="text;html=1;align=center;verticalAlign=middle;resizable=0;points=[];autosize=1;strokeColor=none;fillColor=none;" parent="1" vertex="1">
          <mxGeometry x="270" y="615" width="40" height="30" as="geometry" />
        </mxCell>
        <mxCell id="k6LYRhOf6JFqd42rEc7l-61" value="200" style="text;html=1;align=center;verticalAlign=middle;resizable=0;points=[];autosize=1;strokeColor=none;fillColor=none;" parent="1" vertex="1">
          <mxGeometry x="450" y="615" width="40" height="30" as="geometry" />
        </mxCell>
        <mxCell id="k6LYRhOf6JFqd42rEc7l-62" value="55" style="text;html=1;align=center;verticalAlign=middle;resizable=0;points=[];autosize=1;strokeColor=none;fillColor=none;" parent="1" vertex="1">
          <mxGeometry x="290" y="305" width="40" height="30" as="geometry" />
        </mxCell>
        <mxCell id="k6LYRhOf6JFqd42rEc7l-63" value="66" style="text;html=1;align=center;verticalAlign=middle;resizable=0;points=[];autosize=1;strokeColor=none;fillColor=none;" parent="1" vertex="1">
          <mxGeometry x="410" y="295" width="40" height="30" as="geometry" />
        </mxCell>
        <mxCell id="k6LYRhOf6JFqd42rEc7l-64" value="24" style="text;html=1;align=center;verticalAlign=middle;resizable=0;points=[];autosize=1;strokeColor=none;fillColor=none;" parent="1" vertex="1">
          <mxGeometry x="180" y="335" width="40" height="30" as="geometry" />
        </mxCell>
        <mxCell id="k6LYRhOf6JFqd42rEc7l-65" value="55" style="text;html=1;align=center;verticalAlign=middle;resizable=0;points=[];autosize=1;strokeColor=none;fillColor=none;" parent="1" vertex="1">
          <mxGeometry x="440" y="435" width="40" height="30" as="geometry" />
        </mxCell>
        <mxCell id="k6LYRhOf6JFqd42rEc7l-66" value="10" style="text;html=1;align=center;verticalAlign=middle;resizable=0;points=[];autosize=1;strokeColor=none;fillColor=none;" parent="1" vertex="1">
          <mxGeometry x="590" y="415" width="40" height="30" as="geometry" />
        </mxCell>
      </root>
    </mxGraphModel>
  </diagram>
</mxfile>
